<?xml version="1.0" encoding="utf-8"?>
<!-- Generator: Adobe Illustrator 23.0.2, SVG Export Plug-In . SVG Version: 6.00 Build 0)  -->
<svg version="1.1" id="Capa_1" xmlns="http://www.w3.org/2000/svg" xmlns:xlink="http://www.w3.org/1999/xlink" x="0px" y="0px"
	 viewBox="0 0 504 194.2" style="enable-background:new 0 0 504 194.2;" xml:space="preserve">
<style type="text/css">
	.st0{fill:#E76B20;}
	.st1{fill:#F2C43E;}
</style>
<g>
	<rect class="st0" width="504" height="194.2"/>
</g>
<g>
	<path class="st1" d="M181.1,106.1c-0.5,0-0.6-0.2-0.5-0.7l9-20c0.1-0.3,0.3-0.4,0.6-0.4h3.5c0.3,0,0.5,0.1,0.7,0.4l8.9,20
		c0.1,0.2,0.1,0.4,0,0.5c-0.1,0.1-0.2,0.2-0.4,0.2H199c-0.3,0-0.5-0.1-0.7-0.4l-1.7-3.9h-9.5l-1.6,3.9c-0.1,0.3-0.3,0.4-0.7,0.4
		H181.1z M188.8,97.9h6.3l-3.2-7.5L188.8,97.9z"/>
	<path class="st1" d="M224.4,105.6c0.1,0.3-0.1,0.6-0.5,0.6c-0.8,0.2-1.6,0.4-2.3,0.4c-1.9,0-3.1-0.6-3.8-1.9c-1.3,1.3-3,1.9-5,1.9
		c-2.3,0-4.2-0.7-5.7-2.2c-1.5-1.4-2.2-3.3-2.2-5.6c0-2.3,0.7-4.2,2.2-5.6c1.5-1.4,3.4-2.2,5.7-2.2c1.6,0,3,0.4,4.2,1.3v-7.9
		c0-0.4,0.2-0.6,0.6-0.6h3.4c0.4,0,0.6,0.2,0.6,0.6v17.2c0,0.8,0.3,1.1,1,1.1c0.4,0,0.7,0,0.9-0.1c0.4,0,0.6,0.1,0.7,0.5
		L224.4,105.6z M213.2,103.1c1.1,0,2-0.4,2.7-1.2c0.7-0.8,1.1-1.8,1.1-3.1c0-1.3-0.4-2.3-1.1-3.1c-0.7-0.8-1.6-1.2-2.7-1.2
		c-1.1,0-2.1,0.4-2.8,1.2c-0.7,0.8-1.1,1.8-1.1,3.1c0,1.2,0.4,2.3,1.1,3.1C211.2,102.7,212.1,103.1,213.2,103.1z"/>
	<path class="st1" d="M247.3,91c2,0,3.6,0.6,4.8,1.8c1.2,1.2,1.8,2.8,1.8,4.8v7.9c0,0.4-0.2,0.6-0.6,0.6h-3.4
		c-0.4,0-0.6-0.2-0.6-0.6v-7.3c0-1-0.3-1.8-0.8-2.5c-0.6-0.6-1.3-0.9-2.3-0.9c-0.8,0-1.5,0.3-2,0.9c-0.5,0.6-0.8,1.4-0.8,2.4v7.4
		c0,0.4-0.2,0.6-0.6,0.6h-3.4c-0.4,0-0.6-0.2-0.6-0.6v-7.3c0-1-0.3-1.8-0.8-2.5c-0.5-0.6-1.2-0.9-2.1-0.9c-0.9,0-1.7,0.3-2.2,0.9
		c-0.6,0.6-0.8,1.4-0.8,2.4v7.4c0,0.4-0.2,0.6-0.6,0.6H229c-0.4,0-0.6-0.2-0.6-0.6v-9.5c0-0.8-0.4-1.2-1.2-1.2c-0.1,0-0.3,0-0.7,0.1
		c-0.4,0-0.7-0.2-0.7-0.5V92c0-0.3,0.2-0.6,0.5-0.7c0.6-0.2,1.3-0.4,2.2-0.4c1.7,0,2.9,0.6,3.6,1.8c1.2-1.2,2.9-1.8,5.1-1.8
		c2,0,3.6,0.7,4.8,2.1C243.3,91.7,245,91,247.3,91z"/>
	<path class="st1" d="M261.6,88.1c-0.5,0.5-1.2,0.7-1.9,0.7s-1.4-0.2-1.9-0.7c-0.5-0.5-0.8-1.1-0.8-1.8c0-0.7,0.3-1.3,0.8-1.8
		c0.5-0.5,1.2-0.7,1.9-0.7s1.4,0.2,1.9,0.7c0.5,0.5,0.8,1.1,0.8,1.8C262.3,87,262.1,87.6,261.6,88.1z M258,106.1
		c-0.4,0-0.6-0.2-0.6-0.6V92.1c0-0.4,0.2-0.6,0.6-0.6h3.4c0.4,0,0.6,0.2,0.6,0.6v13.5c0,0.4-0.2,0.6-0.6,0.6H258z"/>
	<path class="st1" d="M276.1,91c2,0,3.6,0.6,4.8,1.8c1.2,1.2,1.8,2.8,1.8,4.8v7.9c0,0.4-0.2,0.6-0.6,0.6h-3.4
		c-0.4,0-0.6-0.2-0.6-0.6v-7.3c0-1-0.3-1.8-0.9-2.5c-0.6-0.6-1.3-0.9-2.3-0.9c-1,0-1.8,0.3-2.4,0.9c-0.6,0.6-0.9,1.4-0.9,2.4v7.4
		c0,0.4-0.2,0.6-0.6,0.6h-3.4c-0.4,0-0.6-0.2-0.6-0.6v-9.5c0-0.8-0.4-1.2-1.2-1.2c-0.1,0-0.3,0-0.7,0.1c-0.4,0-0.7-0.2-0.7-0.5V92
		c0-0.3,0.2-0.6,0.5-0.7c0.6-0.2,1.3-0.4,2.2-0.4c1.7,0,2.9,0.6,3.6,1.9C272.1,91.6,273.8,91,276.1,91z"/>
	<path class="st1" d="M290.4,88.1c-0.5,0.5-1.2,0.7-1.9,0.7c-0.8,0-1.4-0.2-1.9-0.7c-0.5-0.5-0.8-1.1-0.8-1.8c0-0.7,0.3-1.3,0.8-1.8
		c0.5-0.5,1.2-0.7,1.9-0.7c0.8,0,1.4,0.2,1.9,0.7c0.5,0.5,0.8,1.1,0.8,1.8C291.1,87,290.9,87.6,290.4,88.1z M286.8,106.1
		c-0.4,0-0.6-0.2-0.6-0.6V92.1c0-0.4,0.2-0.6,0.6-0.6h3.4c0.4,0,0.6,0.2,0.6,0.6v13.5c0,0.4-0.2,0.6-0.6,0.6H286.8z"/>
	<path class="st1" d="M300.9,106.6c-2.1,0-3.8-0.4-5.2-1.3c-1.3-0.8-2.1-2-2.3-3.5c-0.1-0.4,0.1-0.6,0.6-0.6l3,0
		c0.3,0,0.5,0.1,0.7,0.4c0.4,1.1,1.5,1.6,3.3,1.6c0.7,0,1.3-0.1,1.8-0.4s0.7-0.6,0.7-1c0-0.5-0.3-0.9-1-1.1
		c-0.6-0.2-1.4-0.4-2.4-0.5c-0.9-0.1-1.8-0.3-2.8-0.5c-0.9-0.2-1.7-0.7-2.4-1.4c-0.6-0.7-1-1.6-1-2.8c0-1.4,0.6-2.6,1.8-3.4
		c1.2-0.9,2.8-1.3,4.9-1.3c1.9,0,3.5,0.4,4.8,1.2c1.3,0.8,2,1.8,2.2,3.2c0.1,0.4-0.1,0.6-0.5,0.6h-3c-0.3,0-0.5-0.1-0.6-0.4
		c-0.2-0.4-0.5-0.8-1-1.1c-0.5-0.3-1.1-0.4-1.7-0.4c-0.7,0-1.3,0.1-1.7,0.3c-0.4,0.2-0.6,0.5-0.6,0.9c0,0.5,0.3,0.9,1,1.2
		c0.7,0.3,1.4,0.5,2.4,0.6c0.9,0.1,1.9,0.3,2.8,0.5c0.9,0.2,1.7,0.7,2.4,1.4c0.7,0.7,1,1.6,1,2.7c0,1.5-0.6,2.6-1.9,3.5
		C304.8,106.2,303.1,106.6,300.9,106.6z"/>
	<path class="st1" d="M318.9,106.6c-2,0-3.5-0.6-4.7-1.7c-1.1-1.1-1.7-2.6-1.7-4.6v-5.2h-2.8c-0.4,0-0.6-0.2-0.6-0.6v-2.5
		c0-0.4,0.2-0.6,0.6-0.6h2.8v-3.8c0-0.4,0.2-0.6,0.6-0.6h3.4c0.4,0,0.6,0.2,0.6,0.6v3.8h4.7c0.4,0,0.6,0.2,0.6,0.6v2.5
		c0,0.4-0.2,0.6-0.6,0.6h-4.7v5.1c0,0.8,0.2,1.4,0.7,1.8c0.5,0.4,1.1,0.7,1.8,0.7c0.8,0,1.5-0.1,2.3-0.3c0.4-0.1,0.6,0.1,0.7,0.5
		l0.4,2.6c0,0.3-0.1,0.5-0.5,0.7C321.2,106.5,320,106.6,318.9,106.6z"/>
	<path class="st1" d="M337.7,91.3c0.3,0.1,0.5,0.3,0.5,0.7l-0.4,2.9c-0.1,0.4-0.3,0.5-0.7,0.5c-0.5-0.1-1.1-0.1-1.7-0.1
		c-1.2,0-2.1,0.4-2.9,1.1c-0.7,0.7-1.1,1.7-1.1,2.9v6.5c0,0.4-0.2,0.6-0.6,0.6h-3.4c-0.4,0-0.6-0.2-0.6-0.6v-9.5
		c0-0.8-0.4-1.2-1.2-1.2c-0.1,0-0.3,0-0.7,0.1c-0.4,0-0.7-0.2-0.7-0.5V92c0-0.3,0.2-0.6,0.5-0.7c0.7-0.2,1.4-0.4,2.2-0.4
		c1.8,0,3,0.7,3.7,2c1.2-1.4,2.9-2,4.9-2C336.5,91,337.2,91.1,337.7,91.3z"/>
	<path class="st1" d="M359.1,105.6c0,0.3-0.1,0.6-0.5,0.6c-0.8,0.2-1.6,0.4-2.3,0.4c-1.8,0-3.1-0.6-3.8-1.8
		c-1.4,1.2-3.1,1.8-5.1,1.8c-2.3,0-4.2-0.7-5.7-2.2c-1.5-1.4-2.2-3.3-2.2-5.6c0-2.3,0.7-4.2,2.2-5.6c1.5-1.4,3.4-2.2,5.7-2.2
		c1.7,0,3.1,0.5,4.3,1.4v-0.3c0-0.4,0.2-0.6,0.6-0.6h3.3c0.4,0,0.6,0.2,0.6,0.6v9.5c0,0.8,0.3,1.2,1,1.2c0.4,0,0.7,0,0.9-0.1
		c0.4,0,0.6,0.1,0.6,0.5L359.1,105.6z M347.9,103.1c1.1,0,2-0.4,2.7-1.2c0.7-0.8,1.1-1.8,1.1-3.1c0-1.3-0.4-2.3-1.1-3.1
		c-0.7-0.8-1.6-1.2-2.7-1.2c-1.1,0-2.1,0.4-2.8,1.2c-0.7,0.8-1.1,1.8-1.1,3.1c0,1.2,0.4,2.3,1.1,3.1
		C345.8,102.7,346.8,103.1,347.9,103.1z"/>
	<path class="st1" d="M369.3,106.6c-2.5,0-4.5-0.7-6-2.1c-1.5-1.4-2.3-3.3-2.3-5.7c0-2.4,0.8-4.2,2.3-5.7c1.5-1.4,3.5-2.1,6-2.1
		c2,0,3.7,0.5,5.1,1.5c1.4,1,2.2,2.3,2.5,4c0.1,0.4-0.1,0.6-0.5,0.6h-3.2c-0.3,0-0.5-0.2-0.6-0.5c-0.2-0.6-0.6-1-1.2-1.4
		c-0.6-0.4-1.2-0.5-2-0.5c-1.2,0-2.1,0.4-2.9,1.1c-0.7,0.8-1.1,1.8-1.1,3c0,1.2,0.4,2.3,1.1,3c0.7,0.8,1.7,1.1,2.9,1.1
		c0.8,0,1.5-0.2,2.1-0.5s1-0.8,1.2-1.4c0.2-0.3,0.4-0.5,0.6-0.5h3.2c0.4,0,0.6,0.2,0.5,0.6c-0.3,1.7-1.2,3-2.5,4
		C373,106.1,371.3,106.6,369.3,106.6z"/>
	<path class="st1" d="M384.2,88.1c-0.5,0.5-1.2,0.7-1.9,0.7c-0.8,0-1.4-0.2-1.9-0.7c-0.5-0.5-0.8-1.1-0.8-1.8c0-0.7,0.3-1.3,0.8-1.8
		s1.2-0.7,1.9-0.7c0.8,0,1.4,0.2,1.9,0.7c0.5,0.5,0.8,1.1,0.8,1.8C384.9,87,384.7,87.6,384.2,88.1z M380.6,106.1
		c-0.4,0-0.6-0.2-0.6-0.6V92.1c0-0.4,0.2-0.6,0.6-0.6h3.4c0.4,0,0.6,0.2,0.6,0.6v13.5c0,0.4-0.2,0.6-0.6,0.6H380.6z"/>
	<path class="st1" d="M401.9,104.5c-1.5,1.4-3.5,2.1-6,2.1c-2.5,0-4.5-0.7-6-2.1c-1.5-1.4-2.3-3.3-2.3-5.7c0-2.4,0.8-4.2,2.3-5.7
		c1.5-1.4,3.5-2.1,6-2.1c2.5,0,4.5,0.7,6,2.1c1.5,1.4,2.3,3.3,2.3,5.7C404.1,101.2,403.4,103,401.9,104.5z M393,101.8
		c0.7,0.7,1.7,1.1,2.9,1.1s2.1-0.4,2.9-1.1c0.7-0.7,1.1-1.7,1.1-2.9c0-1.2-0.4-2.2-1.1-3c-0.7-0.7-1.7-1.1-2.9-1.1s-2.1,0.4-2.9,1.1
		c-0.7,0.7-1.1,1.7-1.1,3C391.9,100,392.2,101,393,101.8z M394.3,89.1c-0.2,0-0.3-0.1-0.4-0.2c-0.1-0.1-0.1-0.3,0-0.5l2-3.7
		c0.1-0.3,0.4-0.4,0.7-0.4h3.6c0.2,0,0.4,0.1,0.4,0.2c0.1,0.1,0,0.3-0.1,0.5l-2.6,3.8c-0.2,0.2-0.4,0.3-0.7,0.3H394.3z"/>
	<path class="st1" d="M417.6,91c2,0,3.6,0.6,4.8,1.8c1.2,1.2,1.8,2.8,1.8,4.8v7.9c0,0.4-0.2,0.6-0.6,0.6h-3.4
		c-0.4,0-0.6-0.2-0.6-0.6v-7.3c0-1-0.3-1.8-0.9-2.5c-0.6-0.6-1.3-0.9-2.3-0.9c-1,0-1.8,0.3-2.4,0.9c-0.6,0.6-0.9,1.4-0.9,2.4v7.4
		c0,0.4-0.2,0.6-0.6,0.6h-3.4c-0.4,0-0.6-0.2-0.6-0.6v-9.5c0-0.8-0.4-1.2-1.2-1.2c-0.1,0-0.3,0-0.7,0.1c-0.4,0-0.7-0.2-0.7-0.5V92
		c0-0.3,0.2-0.6,0.5-0.7c0.6-0.2,1.3-0.4,2.2-0.4c1.7,0,2.9,0.6,3.6,1.9C413.6,91.6,415.3,91,417.6,91z"/>
	<path class="st1" d="M161.2,94.9l-6.5,6.5v-6.8c0-9.5-7-17.4-16.1-18.7v7.3c5.1,1.3,8.9,5.9,8.9,11.4v6.8v8.7v1.5l0.1,7.1
		l18.7-18.7L161.2,94.9z"/>
	<path class="st1" d="M98.6,100v-6.8l0.1-10v-7.4L79.8,94.6l5.1,5.1l6.5-6.5v6.8c0,9.3,6.8,17.1,15.7,18.7v-7.4
		C102.2,109.9,98.6,105.4,98.6,100z"/>
	<path class="st1" d="M125.6,53.9l-5.1,5.1l6.5,6.5h-6.8c-9.4,0-17.2,6.9-18.7,15.8h7.3c1.4-5,5.9-8.6,11.3-8.6h6.8h8.7h1.5l7.3,0.2
		L125.6,53.9z"/>
	<path class="st1" d="M125.9,121.5h-6.8l0,0h-10.2h-7.2l18.8,18.8l5.1-5.1l-6.5-6.5h6.9c9.3,0,17-6.7,18.6-15.5h-7.4
		C135.7,118,131.2,121.5,125.9,121.5z"/>
</g>
</svg>
