<svg xmlns="http://www.w3.org/2000/svg" width="98.555" height="98.555" viewBox="0 0 98.555 98.555">
  <g id="isologo.svg" transform="translate(393.075 90.075)">
    <g id="Grupo_6" data-name="Grupo 6" transform="translate(-393.075 -90.075)">
      <g id="Grupo_5" data-name="Grupo 5">
        <path id="Trazado_3" data-name="Trazado 3" d="M-358.441,2.419l-28.573-28.573a20.721,20.721,0,0,1,0-29.287l28.573-28.573a20.721,20.721,0,0,1,29.287,0l28.573,28.573a20.721,20.721,0,0,1,0,29.287L-329.154,2.419A20.721,20.721,0,0,1-358.441,2.419Z" transform="translate(393.075 90.075)" fill="#fff"/>
      </g>
    </g>
    <g id="Grupo_13" data-name="Grupo 13" transform="translate(-371.623 -74.65)">
      <g id="Grupo_7" data-name="Grupo 7" transform="translate(0 34.611)">
        <path id="Trazado_4" data-name="Trazado 4" d="M-312.065,37.958a.245.245,0,0,1-.179.268,3.419,3.419,0,0,1-1.116.179,1.915,1.915,0,0,1-1.875-.982,3.9,3.9,0,0,1-2.679.982,4.321,4.321,0,0,1-3.081-1.161,3.9,3.9,0,0,1-1.205-2.991,3.969,3.969,0,0,1,1.205-2.991,4.322,4.322,0,0,1,3.081-1.161,3.734,3.734,0,0,1,2.277.714v-.223c0-.179.089-.223.223-.223h1.473c.179,0,.223.089.223.223v5.447a.754.754,0,0,0,.134.446.566.566,0,0,0,.4.179c.179,0,.357-.045.58-.045.179-.045.268.045.268.179Zm-5.8-1.161a2.1,2.1,0,0,0,1.652-.714,2.753,2.753,0,0,0,.625-1.83,2.839,2.839,0,0,0-.625-1.83,2.042,2.042,0,0,0-1.652-.714,2.2,2.2,0,0,0-1.7.714,2.569,2.569,0,0,0-.67,1.83,2.645,2.645,0,0,0,.67,1.83A2.2,2.2,0,0,0-317.869,36.8Z" transform="translate(332.391 -26.484)" fill="#7b868c"/>
        <path id="Trazado_5" data-name="Trazado 5" d="M-294.623,34.3a2.691,2.691,0,0,1-1.652-.491,1.587,1.587,0,0,1-.625-1.295V22.823c0-.179.089-.223.223-.223h1.473c.179,0,.223.089.223.223v9.152a.754.754,0,0,0,.134.446.566.566,0,0,0,.4.179c.179,0,.357-.045.58-.045.179-.045.268.045.268.179l.134,1.116c.045.134-.045.223-.179.268A3.21,3.21,0,0,1-294.623,34.3Z" transform="translate(318.386 -22.332)" fill="#7b868c"/>
        <path id="Trazado_6" data-name="Trazado 6" d="M-285.65,24.232a1.287,1.287,0,0,1-.893-.313,1.118,1.118,0,0,1-.357-.8,1.118,1.118,0,0,1,.357-.8A1.216,1.216,0,0,1-285.65,22a1.111,1.111,0,0,1,.848.313,1.118,1.118,0,0,1,.357.8,1.118,1.118,0,0,1-.357.8A1.111,1.111,0,0,1-285.65,24.232Zm1.295,9.733a2.691,2.691,0,0,1-1.652-.491,1.587,1.587,0,0,1-.625-1.295V26.152c0-.179.089-.223.223-.223h1.473c.179,0,.223.089.223.223V31.6a.754.754,0,0,0,.134.446.566.566,0,0,0,.4.179c.179,0,.357-.045.58-.045.179-.045.268.045.268.179l.134,1.116c.045.134-.045.223-.179.268A2.433,2.433,0,0,1-284.355,33.965Z" transform="translate(312.85 -22)" fill="#7b868c"/>
        <path id="Trazado_7" data-name="Trazado 7" d="M-273.216,38.67a4.761,4.761,0,0,1-2.679-.67,2.693,2.693,0,0,1-1.205-1.875c0-.179.045-.268.223-.268h1.384a.283.283,0,0,1,.268.223q.335,1.071,2.009,1.071a2.6,2.6,0,0,0,1.116-.223c.313-.179.446-.357.446-.625a.7.7,0,0,0-.536-.67,5.005,5.005,0,0,0-1.295-.313A9.882,9.882,0,0,1-275,35.054a2.984,2.984,0,0,1-1.295-.67,1.954,1.954,0,0,1-.536-1.429,2.127,2.127,0,0,1,.938-1.786,4.248,4.248,0,0,1,2.5-.67,4.608,4.608,0,0,1,2.411.625,2.341,2.341,0,0,1,1.116,1.652c0,.179-.045.268-.223.268h-1.384a.27.27,0,0,1-.268-.134,1.362,1.362,0,0,0-.625-.714,2.121,2.121,0,0,0-1.072-.268,2.391,2.391,0,0,0-1.071.223.66.66,0,0,0-.4.58.848.848,0,0,0,.357.67,1.946,1.946,0,0,0,.938.313c.357.045.8.089,1.205.179a7.872,7.872,0,0,1,1.205.313,2.28,2.28,0,0,1,.938.67,1.953,1.953,0,0,1,.4,1.295,2.149,2.149,0,0,1-.938,1.83A3.977,3.977,0,0,1-273.216,38.67Z" transform="translate(307.426 -26.705)" fill="#7b868c"/>
        <path id="Trazado_8" data-name="Trazado 8" d="M-254.014,38.615a4.528,4.528,0,0,1-3.125-1.116,3.871,3.871,0,0,1-1.161-2.991,4.036,4.036,0,0,1,1.161-2.991,4.328,4.328,0,0,1,3.125-1.116,4.437,4.437,0,0,1,2.589.759,3.139,3.139,0,0,1,1.339,2.009c.045.179-.045.268-.223.268h-1.518a.283.283,0,0,1-.268-.223,1.642,1.642,0,0,0-.714-.848,2.211,2.211,0,0,0-1.205-.313,2.253,2.253,0,0,0-1.7.67,2.366,2.366,0,0,0-.625,1.786,2.554,2.554,0,0,0,.625,1.786,2.253,2.253,0,0,0,1.7.67,2.211,2.211,0,0,0,1.205-.313,1.642,1.642,0,0,0,.714-.848.283.283,0,0,1,.268-.223h1.518c.179,0,.223.089.223.268a3.139,3.139,0,0,1-1.339,2.009A4.437,4.437,0,0,1-254.014,38.615Z" transform="translate(297.019 -26.65)" fill="#7b868c"/>
        <path id="Trazado_9" data-name="Trazado 9" d="M-230.244,37.4a4.328,4.328,0,0,1-3.125,1.116,4.528,4.528,0,0,1-3.125-1.116,3.9,3.9,0,0,1-1.205-2.991,3.9,3.9,0,0,1,1.205-2.991,4.328,4.328,0,0,1,3.125-1.116,4.528,4.528,0,0,1,3.125,1.116,3.9,3.9,0,0,1,1.205,2.991A3.9,3.9,0,0,1-230.244,37.4Zm-4.822-1.205a2.253,2.253,0,0,0,1.7.67,2.253,2.253,0,0,0,1.7-.67,2.366,2.366,0,0,0,.625-1.786,2.634,2.634,0,0,0-.625-1.786,2.186,2.186,0,0,0-1.7-.67,2.186,2.186,0,0,0-1.7.67,2.366,2.366,0,0,0-.625,1.786A2.366,2.366,0,0,0-235.066,36.193Z" transform="translate(285.616 -26.594)" fill="#7b868c"/>
        <path id="Trazado_10" data-name="Trazado 10" d="M-336.4,22.8a.211.211,0,0,1,.223.223v7.009a4.106,4.106,0,0,1-1.205,3.17,4.653,4.653,0,0,1-3.3,1.161,4.7,4.7,0,0,1-2.991-.938,3.438,3.438,0,0,1-1.339-2.545c-.045-.179.045-.268.223-.268h1.607a.283.283,0,0,1,.268.223,1.933,1.933,0,0,0,.759,1.25,2.744,2.744,0,0,0,1.607.491,1.984,1.984,0,0,0,1.652-.714,2.876,2.876,0,0,0,.625-1.875V25.122c0-.625-.67-.8-1.116-.8h-.134a.192.192,0,0,1-.179-.179V23.023a.192.192,0,0,1,.179-.179l3.125-.045Z" transform="translate(345.025 -22.443)" fill="#7b868c"/>
      </g>
      <g id="Grupo_8" data-name="Grupo 8" transform="translate(4.027 50.639)">
        <path id="Trazado_11" data-name="Trazado 11" d="M-334.708,58a1.136,1.136,0,0,1,1.161.8h-.446a.69.69,0,0,0-.714-.4.846.846,0,0,0-.848.938.871.871,0,0,0,.848.938.755.755,0,0,0,.848-.67h-.8V59.25h1.206a1.222,1.222,0,0,1-1.25,1.429A1.254,1.254,0,0,1-336,59.339,1.231,1.231,0,0,1-334.708,58Z" transform="translate(336.005 -57.955)" fill="#7b868c"/>
        <path id="Trazado_12" data-name="Trazado 12" d="M-327.605,60.579a1.254,1.254,0,0,1-1.295-1.339,1.278,1.278,0,0,1,1.295-1.339,1.254,1.254,0,0,1,1.295,1.339A1.254,1.254,0,0,1-327.605,60.579Zm0-.4a.856.856,0,0,0,.893-.938.88.88,0,0,0-.893-.938.856.856,0,0,0-.893.938A.856.856,0,0,0-327.605,60.177Z" transform="translate(332.072 -57.9)" fill="#7b868c"/>
        <path id="Trazado_13" data-name="Trazado 13" d="M-319.737,59.25a.576.576,0,0,1,.4.58.739.739,0,0,1-.8.759H-321.3V58h1.027a.707.707,0,0,1,.8.714A.478.478,0,0,1-319.737,59.25Zm-1.116-.848v.714h.58c.268,0,.4-.089.4-.357s-.179-.357-.4-.357Zm0,1.071v.759h.714a.365.365,0,0,0,.4-.357.405.405,0,0,0-.134-.313.481.481,0,0,0-.357-.089Z" transform="translate(327.865 -57.955)" fill="#7b868c"/>
        <path id="Trazado_14" data-name="Trazado 14" d="M-314.25,60.232v.357h-1.25v-.357h.4V58.357h-.357V58h1.161v.357h-.357v1.875Z" transform="translate(324.655 -57.955)" fill="#7b868c"/>
        <path id="Trazado_15" data-name="Trazado 15" d="M-309.337,58.4h-1.116v.67h1.072v.4h-1.072v.759h1.161v.4H-310.9V58h1.563Z" transform="translate(322.108 -57.955)" fill="#7b868c"/>
        <path id="Trazado_16" data-name="Trazado 16" d="M-303.4,60.545v.045h-.446l-.625-.893h-.58v.893h-.446V58h1.071a.859.859,0,0,1,.893.848.778.778,0,0,1-.536.759Zm-.982-1.205a.468.468,0,0,0,.491-.491.468.468,0,0,0-.491-.491h-.625v.982Z" transform="translate(319.119 -57.955)" fill="#7b868c"/>
        <path id="Trazado_17" data-name="Trazado 17" d="M-298.643,58.848l.045.8v.938h-.4V58h.179l1.563,1.741-.045-.8V58h.447v2.589h-.134Z" transform="translate(315.521 -57.955)" fill="#7b868c"/>
        <path id="Trazado_18" data-name="Trazado 18" d="M-291.205,60.579a1.254,1.254,0,0,1-1.295-1.339,1.278,1.278,0,0,1,1.295-1.339,1.254,1.254,0,0,1,1.295,1.339A1.254,1.254,0,0,1-291.205,60.579Zm0-.4a.856.856,0,0,0,.893-.938.88.88,0,0,0-.893-.938.856.856,0,0,0-.893.938A.856.856,0,0,0-291.205,60.177Z" transform="translate(311.923 -57.9)" fill="#7b868c"/>
        <path id="Trazado_19" data-name="Trazado 19" d="M-281.162,58a1.23,1.23,0,0,1,1.25,1.295,1.23,1.23,0,0,1-1.25,1.295h-.938V58Zm0,2.188a.832.832,0,0,0,.848-.893.832.832,0,0,0-.848-.893h-.491v1.786Z" transform="translate(306.166 -57.955)" fill="#7b868c"/>
        <path id="Trazado_20" data-name="Trazado 20" d="M-273.737,58.4h-1.116v.67h1.071v.4h-1.071v.759h1.161v.4H-275.3V58h1.563Z" transform="translate(302.402 -57.955)" fill="#7b868c"/>
        <path id="Trazado_21" data-name="Trazado 21" d="M-269.4,60.188h1.116v.4H-269.8V58h.446v2.188Z" transform="translate(299.357 -57.955)" fill="#7b868c"/>
        <path id="Trazado_22" data-name="Trazado 22" d="M-260.737,58.4h-1.116v.67h1.072v.4h-1.072v.759h1.161v.4H-262.3V58h1.563Z" transform="translate(295.206 -57.955)" fill="#7b868c"/>
        <path id="Trazado_23" data-name="Trazado 23" d="M-256.8,59.875c0,.268.313.4.625.4.268,0,.58-.045.58-.4s-.357-.357-.625-.4c-.491-.045-.937-.179-.937-.714s.491-.759.982-.759a.868.868,0,0,1,.982.759h-.4c0-.268-.312-.357-.58-.357-.223,0-.536.089-.536.357s.268.313.58.357c.536.045.982.179.982.759s-.536.759-1.027.759-1.027-.223-1.027-.759Z" transform="translate(292.383 -57.955)" fill="#7b868c"/>
        <path id="Trazado_24" data-name="Trazado 24" d="M-251.4,58.4V58h1.92v.4h-.759v2.188h-.4V58.4Z" transform="translate(289.172 -57.955)" fill="#7b868c"/>
        <path id="Trazado_25" data-name="Trazado 25" d="M-245.986,60.054l-.268.536h-.446v-.045L-245.495,58h.179l1.161,2.545v.045h-.446l-.268-.536Zm.134-.357h.893l-.446-1.027Z" transform="translate(286.571 -57.955)" fill="#7b868c"/>
        <path id="Trazado_26" data-name="Trazado 26" d="M-238.562,58a1.23,1.23,0,0,1,1.25,1.295,1.23,1.23,0,0,1-1.25,1.295h-.938V58Zm0,2.188a.832.832,0,0,0,.848-.893.832.832,0,0,0-.848-.893h-.491v1.786Z" transform="translate(282.585 -57.955)" fill="#7b868c"/>
        <path id="Trazado_27" data-name="Trazado 27" d="M-231.805,60.579a1.254,1.254,0,0,1-1.295-1.339,1.278,1.278,0,0,1,1.295-1.339,1.254,1.254,0,0,1,1.295,1.339A1.209,1.209,0,0,1-231.805,60.579Zm.045-.4a.856.856,0,0,0,.893-.938.88.88,0,0,0-.893-.938.856.856,0,0,0-.893.938A.856.856,0,0,0-231.761,60.177Z" transform="translate(279.042 -57.9)" fill="#7b868c"/>
      </g>
      <g id="Grupo_12" data-name="Grupo 12" transform="translate(12.736 0)">
        <g id="Grupo_11" data-name="Grupo 11">
          <g id="Grupo_9" data-name="Grupo 9">
            <path id="Trazado_28" data-name="Trazado 28" d="M-282.2-47.049v1.429a1.076,1.076,0,0,1,.58,0h0v-1.429A1.076,1.076,0,0,0-282.2-47.049Z" transform="translate(297.512 50.855)" fill="#7b868c"/>
            <path id="Trazado_29" data-name="Trazado 29" d="M-295.6-51.317a.246.246,0,0,0,.134.223,4.8,4.8,0,0,0,1.875.446,4.243,4.243,0,0,0,2.456-.8,3.272,3.272,0,0,1,3.482-.134,1.419,1.419,0,0,1-.938.357h-.223v.491h.223a1.718,1.718,0,0,0,1.518-.8h0a.164.164,0,0,0,.045-.134v-2.991a.341.341,0,0,0-.089-.223,3.927,3.927,0,0,0-4.286,0,3.818,3.818,0,0,1-3.839.313.256.256,0,0,0-.312.089.275.275,0,0,0,.045.313l1.652,1.429-1.607,1.205A.246.246,0,0,0-295.6-51.317Zm2.277-1.205a.338.338,0,0,0,.089-.179c0-.089-.045-.134-.089-.223l-.982-.848a4.158,4.158,0,0,0,3.125-.714,3.412,3.412,0,0,1,3.616-.089v2.411a3.9,3.9,0,0,0-3.884.223,3.787,3.787,0,0,1-3.438.491Z" transform="translate(304.93 55.525)" fill="#7b868c"/>
            <path id="Trazado_30" data-name="Trazado 30" d="M-282.92-51.848h.536v-.536h.58v-.58h-.58V-53.5h-.536v.536h-.58v.58h.58Z" transform="translate(298.232 54.404)" fill="#7b868c"/>
            <path id="Trazado_31" data-name="Trazado 31" d="M-288.64-25.508a7.773,7.773,0,0,1,.536-.625,12.284,12.284,0,0,0,2.054-2.857,4.917,4.917,0,0,0,.491-2.813,4.4,4.4,0,0,0-2.634-3.482,1.908,1.908,0,0,0,.268-1.295h0a.3.3,0,0,0-.179-.223.215.215,0,0,0-.268.089,1.018,1.018,0,0,1-.536.268,1.024,1.024,0,0,1-.625-.045h-.045a5.579,5.579,0,0,0-1.875-.357,4.085,4.085,0,0,0-.759.045v-.045a3.077,3.077,0,0,0-.089-.58.349.349,0,0,0-.179-.179.2.2,0,0,0-.223,0,.841.841,0,0,1-.357.089h-.089c-.134,0-.268-.045-.4-.045a2.546,2.546,0,0,0-.58.045c-.179.045-.357.089-.58.134-.179.045-.357.134-.536.179a4.87,4.87,0,0,0-.491.268,3.874,3.874,0,0,0-.447.313c-.134.089-.268.268-.4.357a1.183,1.183,0,0,0-.223.268c-.089.089-.134.179-.223.268-.134.179-.223.4-.357.625a.044.044,0,0,1-.045.045v.089h0l-.134.134a.617.617,0,0,0-.134.179c-.089.089-.134.179-.223.223l-.089.089a.617.617,0,0,1-.179.134l-.045.045-.848-.58-.134-.8a.934.934,0,0,1,.179-.268l.045-.045c.045-.045.045-.089.089-.134v-.045c0-.045.045-.089.045-.134v-.089l.223-.045.179-1.384h0l-.268-.045v-.134a.268.268,0,0,0-.045-.179,2.175,2.175,0,0,0-.179-.491v-.045a1.676,1.676,0,0,0-.982-.848h-.045v-.045c0-.045.045-.045.045-.089a1.85,1.85,0,0,1,.8-.848l.089.268a.245.245,0,0,0,.268.179.232.232,0,0,0,.179-.089,1.182,1.182,0,0,0,.223-.268,1.98,1.98,0,0,0,.134-1.741,1.157,1.157,0,0,0-1.072-.759.8.8,0,0,0-.446.089,1.345,1.345,0,0,0-1.205-.759,1.3,1.3,0,0,0-1.205.759.971.971,0,0,0-.446-.089,1.343,1.343,0,0,0-1.072.759,2,2,0,0,0,.134,1.741,1.186,1.186,0,0,0,.223.268.339.339,0,0,0,.179.089.278.278,0,0,0,.268-.179,1.433,1.433,0,0,0,.089-.268,1.85,1.85,0,0,1,.8.848c0,.045.045.045.045.089v.045h-.045a1.7,1.7,0,0,0-.982.848v.045a1.6,1.6,0,0,0-.179.491.337.337,0,0,1-.045.179v.134l-.268.045h0l.179,1.384.223.045a.044.044,0,0,0,.045.045v.045c0,.045.045.089.045.134V-36c.045.045.045.089.089.134l.045.045a.934.934,0,0,0,.179.268l-.134.8-.848.58a2.117,2.117,0,0,1-.446-.446l-.089-.089c-.089-.089-.179-.223-.268-.313h0a.044.044,0,0,0-.045-.045v-.045a.044.044,0,0,0-.045-.045c-.134-.179-.268-.4-.4-.625-.045-.089-.134-.179-.179-.268a1.184,1.184,0,0,1-.223-.268,2.888,2.888,0,0,0-.4-.357c-.134-.089-.313-.223-.446-.313-.179-.089-.312-.179-.491-.268a2.517,2.517,0,0,0-.536-.179c-.179-.045-.357-.089-.58-.134a2.546,2.546,0,0,0-.58-.045,1.236,1.236,0,0,0-.4.045h-.089a.841.841,0,0,1-.357-.089.2.2,0,0,0-.223,0,.349.349,0,0,0-.179.179,2.263,2.263,0,0,0-.089.58v.045a5.469,5.469,0,0,0-.848-.089,5.378,5.378,0,0,0-1.875.357h-.045a.981.981,0,0,1-.625.045,1.509,1.509,0,0,1-.536-.268.328.328,0,0,0-.268-.089.3.3,0,0,0-.179.223h0a2.2,2.2,0,0,0,.268,1.295,4.4,4.4,0,0,0-2.634,3.482,4.916,4.916,0,0,0,.491,2.813,12.889,12.889,0,0,0,2.054,2.857,7.767,7.767,0,0,0,.536.625c.045.089.134.134.179.223a3.031,3.031,0,0,1,.982,1.741.961.961,0,0,1-1.027,1.027,1.3,1.3,0,0,1-.4-.089c-.045,0-.089-.045-.134-.045h0s-.536-.045-.67.4a.164.164,0,0,0-.134.045.53.53,0,0,0-.4.58v.045a3.176,3.176,0,0,0,3.125,2.813h.045a3.36,3.36,0,0,0,1.964-.67h0a.665.665,0,0,0,.4.179.828.828,0,0,0,.313-.089,3.174,3.174,0,0,0,1.027-1.161h0a.156.156,0,0,1,.045-.089c0,.045.045.045.045.089.045.045.089.134.134.179a7.982,7.982,0,0,0,6.786,3.527,8.039,8.039,0,0,0,6.786-3.527c.045-.045.089-.134.134-.179,0-.045.045-.045.045-.089a.156.156,0,0,0,.045.089h0a4.27,4.27,0,0,0,1.027,1.161.425.425,0,0,0,.313.089.546.546,0,0,0,.4-.179h0a3.08,3.08,0,0,0,1.964.67h.045a3.214,3.214,0,0,0,3.125-2.813v-.045a.5.5,0,0,0-.4-.58c-.045,0-.089-.045-.134-.045a.588.588,0,0,0-.67-.4h0a.164.164,0,0,0-.134.045,1.3,1.3,0,0,1-.4.089.939.939,0,0,1-1.027-1.027A3.306,3.306,0,0,1-289-25.374.385.385,0,0,0-288.64-25.508Zm-2.768-10.8a4.4,4.4,0,0,1,1.7.313h.045a1.679,1.679,0,0,0,.938.045,2.846,2.846,0,0,1,.313-.089,1.217,1.217,0,0,1-.268.536,8.253,8.253,0,0,0-1.072-.134,3.9,3.9,0,0,0-3.348,1.875.592.592,0,0,0-.58-.4h-1.607A4.5,4.5,0,0,1-291.408-36.312Zm.58,6.786c0,.045.045.089.045.134a1.644,1.644,0,0,0,1.563,1.027h.045c-1.205,1.205-2.857,1.875-4.018,3.125v-4.375l.134-.134c.313-.357.625-.714.938-1.027a3.164,3.164,0,0,1,1.786-1.027,1.4,1.4,0,0,1,.848.089.794.794,0,0,1,.313.357.752.752,0,0,1-.179.848c-.045.045-.045.045-.089.045a.507.507,0,0,1-.357.134.566.566,0,0,1-.268-.045.76.76,0,0,0-.312-.045.469.469,0,0,0-.4.223C-290.738-30.106-290.917-29.883-290.828-29.526Zm-8.125-7.634-.045.491h0l-.268.045-.268.045v-.714c.089.045.223.045.313.089C-299.132-37.2-299.042-37.16-298.953-37.16Zm-1.964,1.429h0l1.384-.313h0c-.045.089-.134.223-.179.313s-.089.134-.134.223a1.443,1.443,0,0,1-1.071.58,1.443,1.443,0,0,1-1.072-.58c-.045-.089-.089-.134-.134-.223a1.122,1.122,0,0,1-.179-.313h0Zm-.848-.714v-.982a4.633,4.633,0,0,0,.536-.134v1.205Zm1.116.089v-1.205c.134.045.357.089.536.134v.982Zm-1.83-4.42a.876.876,0,0,1,.4-.4,1.751,1.751,0,0,0-1.071.536,1.479,1.479,0,0,1,0-1.071.679.679,0,0,1,.58-.446,1.189,1.189,0,0,1,.536.134,1.815,1.815,0,0,1,.848,1.116,1.874,1.874,0,0,0-.357-1.25c-.045-.045-.089-.134-.134-.179a.778.778,0,0,1,.759-.536.778.778,0,0,1,.759.536.615.615,0,0,0-.134.179,1.874,1.874,0,0,0-.357,1.25,1.64,1.64,0,0,1,.848-1.116,1.345,1.345,0,0,1,.536-.134.661.661,0,0,1,.58.446,1.479,1.479,0,0,1,0,1.071,1.992,1.992,0,0,0-1.071-.536.876.876,0,0,1,.4.4,2.1,2.1,0,0,0-1.027,1.116.156.156,0,0,1-.045.089c0,.045,0,.045-.045.089a4.128,4.128,0,0,1-.446-.223h0a1.4,1.4,0,0,1-.446.223c0-.045,0-.045-.045-.089a.156.156,0,0,0-.045-.089A2.1,2.1,0,0,0-302.48-40.777Zm.8,1.964.4-.134c.134-.045.223-.134.357-.179a1.337,1.337,0,0,0,.357.179l.4.134a1.5,1.5,0,0,1,.893.982c-1.473-.357-1.563-.4-1.607-.4h0c-.045,0-.134.045-1.607.4A1.362,1.362,0,0,1-301.676-38.812Zm-1.116,2.143h0l-.045-.491c.089,0,.179-.045.268-.045.089-.045.223-.045.313-.089v.714l-.268-.045Zm.58,2.322.089-.491.045.045a1.828,1.828,0,0,0,1.161.491h0a1.621,1.621,0,0,0,1.161-.491l.045-.045.089.491.893.625c-.045.045-.089.045-.134.089a4.291,4.291,0,0,1-1.25.491,5.032,5.032,0,0,1-.8.134,3.907,3.907,0,0,1-.714-.089,4.557,4.557,0,0,1-1.295-.491c-.045-.045-.134-.089-.179-.134Zm-10.983-1.563a1.68,1.68,0,0,0,.938-.045h.045a4.4,4.4,0,0,1,1.7-.313,4.76,4.76,0,0,1,3.973,2.143h-1.607a.591.591,0,0,0-.58.4,3.958,3.958,0,0,0-3.348-1.875,7.211,7.211,0,0,0-1.072.134,1.51,1.51,0,0,1-.268-.536A.754.754,0,0,1-313.195-35.91Zm5.09,13.974v.179a.164.164,0,0,1-.045.134h0a3.288,3.288,0,0,1-.179.625v.045a.156.156,0,0,1-.045.089c0,.045-.045.045-.045.089a3.3,3.3,0,0,1-.893,1.027,2.841,2.841,0,0,0,.536-1.7,2.528,2.528,0,0,0-.134-.8h0a3.622,3.622,0,0,1-.536,1.7h0a2.685,2.685,0,0,1-2.277,1.339h-.045a2.715,2.715,0,0,1-2.589-2.322h0a1.933,1.933,0,0,0,1.607.893,1.917,1.917,0,0,0,1.92-1.83,1.817,1.817,0,0,1-.848.982h-.045a3.077,3.077,0,0,1-.357.134A1.439,1.439,0,0,1-314-22.07c.045,0,.089.045.134.045a.634.634,0,0,0,.268.089.662.662,0,0,0,.313.045h.491l.4-.134a.8.8,0,0,0,.313-.223.8.8,0,0,0,.223-.313.72.72,0,0,0,.134-.4,1.518,1.518,0,0,0,.045-.446c0-.893-.8-1.7-1.339-2.322a18.41,18.41,0,0,1-2.545-3.348,4.809,4.809,0,0,1-.446-2.5,3.756,3.756,0,0,1,3.706-3.3,3.363,3.363,0,0,1,2.947,1.741,3.354,3.354,0,0,1,.4,1.295v1.563h0a8.578,8.578,0,0,0-1.295-1.25,2.667,2.667,0,0,0-2.679-.446,1.462,1.462,0,0,0-.491,2.054,1.357,1.357,0,0,0,1.473.491,1.017,1.017,0,0,1-1.473.536l-.268-.134a2.891,2.891,0,0,1-.4-.357c-.045-.089-.134-.134-.179-.223a1.118,1.118,0,0,1-.179-.313c-.045-.134-.089-.268-.134-.446a2.022,2.022,0,0,1,.179-1.339,2.591,2.591,0,0,1,1.607-1.295,3.207,3.207,0,0,1,2.232.268c.089.045.179.134.268.179a.783.783,0,0,1,.223.179,2.477,2.477,0,0,0-2.1-1.205,2.877,2.877,0,0,0-2.366,1.116,2.985,2.985,0,0,0-.58,2.366,6.027,6.027,0,0,0,1.473,2.366,21.764,21.764,0,0,1,2.813,3.84,3.376,3.376,0,0,1,.446,1.741,2.31,2.31,0,0,1-2.188,2.322h0a1.236,1.236,0,0,0,.4.045,2,2,0,0,0,.893-.179,2.553,2.553,0,0,0,1.205-1.071c1.027-1.92-.625-3.929-1.741-5.313a5.618,5.618,0,0,1-.58-.714l1.339.982a9.811,9.811,0,0,1,.8.625,6.084,6.084,0,0,1,1.071,1.071A2.7,2.7,0,0,1-308.105-21.936Zm-4.688-6.429h.045a1.582,1.582,0,0,0,1.563-1.027c0-.045.045-.089.045-.134a.693.693,0,0,0-.089-.58.533.533,0,0,0-.4-.223.76.76,0,0,0-.312.045.566.566,0,0,1-.268.045.72.72,0,0,1-.4-.134c-.045,0-.045-.045-.089-.045a.752.752,0,0,1-.179-.848,1.2,1.2,0,0,1,.313-.357,1.364,1.364,0,0,1,.848-.089,3.164,3.164,0,0,1,1.786,1.027c.357.313.625.714.938,1.027l.134.134v4.375c-1.071-1.339-2.723-2.009-3.929-3.214Zm18.439,6.429h0a2.244,2.244,0,0,0,.089.536h0c-.089.223-.223.4-.312.625a.339.339,0,0,0-.089.179,7.443,7.443,0,0,1-6.25,3.259,7.336,7.336,0,0,1-6.25-3.259.339.339,0,0,1-.089-.179,2.729,2.729,0,0,1-.313-.625h0c.045-.179.045-.313.089-.491v-.045a4.352,4.352,0,0,0-.625-2.5h0v-9.2h2.589l-.312-.536h0v.045A5.429,5.429,0,0,0-309-36.669v-.268a1.519,1.519,0,0,0,.446.045h.446c.179,0,.4.045.58.045l.536.134a1.651,1.651,0,0,1,.491.223,3,3,0,0,1,.491.313,2.887,2.887,0,0,1,.4.357,3.126,3.126,0,0,1,.357.446c.134.179.268.4.4.58a4.732,4.732,0,0,0,.446.536,2.694,2.694,0,0,0,.357.357c.045.045.134.089.179.134h0c.045.045.134.089.179.134h.045c.045.045.134.089.179.134h0c.045.045.134.089.179.134h0a3.381,3.381,0,0,0,.8.4h.045c.045.045.089.045.179.045l.4.134a8.937,8.937,0,0,0,1.072.179,4.481,4.481,0,0,0,1.071-.179l.4-.134c.045,0,.089-.045.179-.045h.045l.8-.4h0c.045-.045.134-.089.179-.134h.045c.045-.045.134-.089.179-.134h.045l.045-.045h0l.045-.045a.156.156,0,0,1,.089-.045h0l.134-.134.045-.045h0a2.694,2.694,0,0,0,.357-.357c.089-.089.134-.179.223-.268l.045-.045a.784.784,0,0,1,.179-.223v-.089a.232.232,0,0,0,.089-.179l.268-.4a1.747,1.747,0,0,1,.357-.446,2.886,2.886,0,0,1,.4-.357,2.711,2.711,0,0,1,.446-.313,2.732,2.732,0,0,1,.536-.223,2.355,2.355,0,0,1,.536-.134,2.546,2.546,0,0,1,.58-.045h.447a1.518,1.518,0,0,0,.446-.045v.223a5.318,5.318,0,0,0-3.3,2.589V-34.3h0l-.313.536h2.59v9.2h0A4.015,4.015,0,0,0-294.355-21.936Zm3.974-1.607a1.52,1.52,0,0,0,.045.446l.134.4a.8.8,0,0,0,.223.313,1.358,1.358,0,0,0,.313.223,1.418,1.418,0,0,0,.4.134h.491a.872.872,0,0,0,.313-.045.635.635,0,0,0,.268-.089c.045,0,.089-.045.134-.045a1.48,1.48,0,0,1-1.92.714c-.134-.045-.223-.089-.357-.134h0a1.816,1.816,0,0,1-.848-.982,1.917,1.917,0,0,0,1.92,1.83,1.875,1.875,0,0,0,1.607-.893h0a2.645,2.645,0,0,1-2.589,2.322h-.045a2.593,2.593,0,0,1-2.277-1.339h0a3.621,3.621,0,0,1-.536-1.7h0a2.529,2.529,0,0,0-.134.8,3.063,3.063,0,0,0,.536,1.7,3.3,3.3,0,0,1-.893-1.027c0-.045-.045-.045-.045-.089a.156.156,0,0,0-.045-.089v-.045a2.559,2.559,0,0,1-.178-.625h0a.164.164,0,0,0-.045-.134v-.179a4.038,4.038,0,0,1,.938-2.723,6.087,6.087,0,0,1,1.071-1.071c.268-.223.536-.4.8-.625l1.339-.982c-.134.179-.536.625-.58.714-1.161,1.429-2.813,3.393-1.741,5.313a2.454,2.454,0,0,0,1.161,1.071,2,2,0,0,0,.893.179,1.236,1.236,0,0,0,.4-.045h0a2.31,2.31,0,0,1-2.188-2.322,3.84,3.84,0,0,1,.4-1.741,26.493,26.493,0,0,1,2.813-3.84,5.456,5.456,0,0,0,1.473-2.366,3.027,3.027,0,0,0-.58-2.366,2.937,2.937,0,0,0-2.366-1.116,2.476,2.476,0,0,0-2.1,1.205.783.783,0,0,1,.223-.179c.089-.045.179-.134.268-.179a2.981,2.981,0,0,1,2.232-.268,2.745,2.745,0,0,1,1.607,1.295,1.987,1.987,0,0,1,.179,1.339c-.045.134-.089.313-.134.446a1.119,1.119,0,0,1-.179.313.785.785,0,0,1-.179.223,2.89,2.89,0,0,1-.4.357l-.268.134a1.017,1.017,0,0,1-1.473-.536,1.33,1.33,0,0,0,1.473-.491,1.4,1.4,0,0,0-.491-2.054,2.584,2.584,0,0,0-2.679.446,8.575,8.575,0,0,0-1.295,1.25h0v-1.563a2.922,2.922,0,0,1,.4-1.295,3.417,3.417,0,0,1,2.947-1.741,3.794,3.794,0,0,1,3.706,3.3,4.4,4.4,0,0,1-.446,2.5,14.428,14.428,0,0,1-2.545,3.348C-289.622-25.24-290.381-24.436-290.381-23.544Z" transform="translate(316.497 48.869)" fill="#7b868c"/>
          </g>
          <g id="Grupo_10" data-name="Grupo 10" transform="translate(11.071 22.814)">
            <path id="Trazado_32" data-name="Trazado 32" d="M-280.22-2.405v-.089a.288.288,0,0,0-.268-.268V-2l.938-.313a.68.68,0,0,0,.268.491c.089.089.223.223.223.357a3.216,3.216,0,0,0-.67.313.76.76,0,0,0-.045.313.662.662,0,0,0,.045.313.991.991,0,0,1-.491-.223V-.976a.288.288,0,0,0-.268-.268v.759h0a1.246,1.246,0,0,0,.8.268.211.211,0,0,1,.223.223.1.1,0,0,0,.089-.089c0-.089,0-.134-.045-.179,0-.045-.045-.134-.045-.179a.645.645,0,0,1,.089-.313c.045,0,.089-.045.134-.045h.179a.567.567,0,0,1,.268.045c.045,0,.089.045.179.045h.089a.76.76,0,0,0,.313-.045h.045a.044.044,0,0,1-.045.045,1.485,1.485,0,0,1-.268.134h-.134l.179.446a.76.76,0,0,0,.313.045.662.662,0,0,0,.312-.045.991.991,0,0,1-.223.491h-.223a.288.288,0,0,0-.268.268h.759a1.246,1.246,0,0,0,.268-.8.211.211,0,0,1,.223-.223.1.1,0,0,0-.089-.089.268.268,0,0,0-.179.045.268.268,0,0,1-.179.045.645.645,0,0,1-.313-.089.662.662,0,0,1-.045-.313.566.566,0,0,1,.045-.268h0V-1.11c.045,0,.134.045.179.045a.8.8,0,0,0,.8-.8.841.841,0,0,0-.089-.357l-.089-.134a1.035,1.035,0,0,1-.134-.714,1.328,1.328,0,0,1,.223-.67h0c.045-.045.089-.045.134-.089a.452.452,0,0,0,.178-.313v-.179l-.045.045c-.045.045-.045.045-.089.045l-.089.089-.089.089-.089.089h0v.045h0a.044.044,0,0,1-.045.045h0a1.213,1.213,0,0,0-.268.759,1.635,1.635,0,0,0,.179.8l.045.134a.566.566,0,0,1,.045.268.61.61,0,0,1-.625.625h-.045a.62.62,0,0,1-.446-.223c0-.045-.045-.045-.045-.089a1.025,1.025,0,0,1-.179-.625h0a.933.933,0,0,0,.268.179.044.044,0,0,0,.045-.045,1.237,1.237,0,0,1-.045-.4c0-.089.045-.134.089-.223a.346.346,0,0,0,.045.134h.045a.507.507,0,0,1,.134-.357c.045-.045.045-.045.045-.089a.138.138,0,0,0,.045-.089c0-.045.045-.089.045-.134h0V-3.3h0v-.045a1.013,1.013,0,0,0-.4-.8h.045s.045,0,0-.045a.962.962,0,0,0-.759-.223h-.045a.044.044,0,0,0-.045.045l-.045.089h-.045c-.089.045-.179.045-.223.134l-.268.134a.044.044,0,0,0-.045.045v.045c0,.045.045.223.089.223a.138.138,0,0,0,.089-.045h0a.2.2,0,0,1,.223,0s.045.134,0,.179h-.268s-.045.134.045.179a.334.334,0,0,1,.223-.045h.134a1.136,1.136,0,0,0,.313-.089.33.33,0,0,1-.223.134.45.45,0,0,1-.134.045.044.044,0,0,0-.045.045.7.7,0,0,0-.357.268c-.045-.045-.893-.4-.893-.4h0V-3.61a.3.3,0,0,0-.179-.223c-.045,0-.045-.045-.089-.045h0v.58l.759.536.313-.089a.044.044,0,0,1,.045.045v.045Z" transform="translate(285.666 4.425)" fill="#7b868c"/>
            <path id="Trazado_33" data-name="Trazado 33" d="M-290.048.172a.76.76,0,0,1-.313.045.662.662,0,0,1-.313-.045.991.991,0,0,0,.223.491h.223a.288.288,0,0,1,.268.268h-.759a1.247,1.247,0,0,1-.268-.8.211.211,0,0,0-.223-.223.1.1,0,0,1,.089-.089.269.269,0,0,1,.179.045c.045,0,.134.045.179.045a.645.645,0,0,0,.313-.089.662.662,0,0,0,.045-.313.567.567,0,0,0-.045-.268h0V-.81c-.045,0-.134.045-.179.045a.8.8,0,0,1-.8-.8.841.841,0,0,1,.089-.357l.089-.134a1.035,1.035,0,0,0,.134-.714,1.329,1.329,0,0,0-.223-.67h-.045c-.045-.045-.089-.045-.134-.089a.452.452,0,0,1-.179-.313v-.179l.045.045c.045.045.045.045.089.045l.089.089.089.089.089.089h0v.045h0a.044.044,0,0,0,.045.045h0a1.556,1.556,0,0,1,.268.759,1.634,1.634,0,0,1-.179.8l-.045.134a.634.634,0,0,0-.089.268.61.61,0,0,0,.625.625h0a.62.62,0,0,0,.447-.223c.045-.045.045-.045.045-.089A1.025,1.025,0,0,0-290-1.926h0a.933.933,0,0,1-.268.179.044.044,0,0,1-.045-.045,1.234,1.234,0,0,0,.045-.4c0-.089-.045-.134-.089-.223a.345.345,0,0,1-.045.134h-.045c-.045-.134-.045-.268-.134-.357-.045-.045-.045-.045-.045-.089a.138.138,0,0,1-.045-.089c-.045-.045-.045-.089-.089-.134h0V-3h0v-.045a1.013,1.013,0,0,1,.4-.8h-.045s-.045,0,0-.045a.962.962,0,0,1,.759-.223h.045a.044.044,0,0,1,.045.045l.045.089h.045c.089.045.179.045.223.134l.268.134a.044.044,0,0,1,.045.045v.045c0,.045-.045.223-.089.223a.138.138,0,0,1-.089-.045h0a.2.2,0,0,0-.223,0s-.045.134,0,.179h.268s.045.134-.045.179a.335.335,0,0,0-.223-.045h-.134a1.137,1.137,0,0,1-.312-.089.33.33,0,0,0,.223.134.449.449,0,0,0,.134.045.044.044,0,0,1,.045.045.7.7,0,0,1,.357.268c.045-.045.893-.4.893-.4h0V-3.31a.3.3,0,0,1,.179-.223c.045,0,.045-.045.089-.045h0V-3l-.759.536-.313-.089a.044.044,0,0,0-.045.045v.045l.848.446v-.089a.288.288,0,0,1,.268-.268v.536l-.938-.313a.68.68,0,0,1-.268.491c-.089.089-.223.223-.223.357a3.216,3.216,0,0,1,.67.313.761.761,0,0,1,.045.313.663.663,0,0,1-.045.313.991.991,0,0,0,.491-.223V-.81a.288.288,0,0,1,.268-.268v.759h0a1.246,1.246,0,0,1-.8.268.211.211,0,0,0-.223.223.1.1,0,0,1-.089-.089c0-.089,0-.134.045-.179,0-.045.045-.134.045-.179a.646.646,0,0,0-.089-.313c-.045,0-.089-.045-.134-.045h-.312l.045-.357a.044.044,0,0,0-.045-.045.044.044,0,0,0-.045.045Z" transform="translate(291.7 4.259)" fill="#7b868c"/>
          </g>
          <path id="Trazado_34" data-name="Trazado 34" d="M-283.273-15.905a1.976,1.976,0,0,0-1.7-1.071,2.032,2.032,0,0,0-.893-.223,2.032,2.032,0,0,0-.893.223,2.035,2.035,0,0,0-1.7,1.071,1.564,1.564,0,0,0-.848,1.384,1.513,1.513,0,0,0,.536,1.161,1.946,1.946,0,0,0,1.473,1.205,1.293,1.293,0,0,1,1.072,1.25v3.348a.964.964,0,0,1-.893.938h-.178a.288.288,0,0,0-.268.268h3.348a.288.288,0,0,0-.268-.268h-.179a.951.951,0,0,1-.893-.938v-3.348a1.286,1.286,0,0,1,.982-1.205h.045a1.927,1.927,0,0,0,1.518-1.205,1.586,1.586,0,0,0,.536-1.161A1.6,1.6,0,0,0-283.273-15.905Zm-.045,2.143-.089.089-.045.134a1.331,1.331,0,0,1-.893.8h0a4.131,4.131,0,0,0-.446.134h0l-.089.089h0c0,.045-.045.045-.089.045-.045.045-.045.045-.089.045a1.44,1.44,0,0,1-.8.268,1.337,1.337,0,0,1-.8-.268c-.045,0-.045-.045-.089-.045a.156.156,0,0,0-.089-.045h0l-.089-.089h0a4.131,4.131,0,0,0-.446-.134h0a1.342,1.342,0,0,1-.893-.8l-.045-.134-.089-.089a1.022,1.022,0,0,1-.357-.759,1.015,1.015,0,0,1,.536-.893l.134-.089.089-.134a1.546,1.546,0,0,1,1.25-.8h.134l.089-.045a1.871,1.871,0,0,1,.67-.179,1.26,1.26,0,0,1,.67.179l.089.045h.134a1.424,1.424,0,0,1,1.25.8l.089.134.134.089a.982.982,0,0,1,.536.893A.953.953,0,0,1-283.318-13.762Z" transform="translate(301.442 34.31)" fill="#7b868c"/>
        </g>
        <path id="Trazado_35" data-name="Trazado 35" d="M-285.814-18.7a5.333,5.333,0,0,1-1.161.491h3.393V-10.8a5.647,5.647,0,0,1-.134,1.25,4.363,4.363,0,0,1-.491,1.339c-.045.045-.045.089-.089.134a5.624,5.624,0,0,1-4.822,2.768,5.68,5.68,0,0,1-4.822-2.768c-.045-.045-.045-.089-.089-.134a5.411,5.411,0,0,1-.491-1.339,5.951,5.951,0,0,1-.134-1.25v-7.411h3.482a6.014,6.014,0,0,1-1.161-.491H-295.1v7.9a4.711,4.711,0,0,0,.179,1.384,7.176,7.176,0,0,0,.536,1.473c.045.045.045.089.089.179a6.061,6.061,0,0,0,5.224,3.036,5.969,5.969,0,0,0,5.224-3.036c.045-.045.045-.089.089-.179a4.166,4.166,0,0,0,.536-1.473,6.9,6.9,0,0,0,.179-1.384v-7.9Z" transform="translate(304.653 35.141)" fill="#7b868c"/>
        <path id="Trazado_36" data-name="Trazado 36" d="M-266.886-18.611l-.134-.089-.223.223-.268-.223-.089.089.223.223-.223.268.089.089.268-.223.223.223.134-.089-.268-.268Z" transform="translate(289.43 35.141)" fill="#7b868c"/>
        <path id="Trazado_37" data-name="Trazado 37" d="M-296.586-18.611l-.134-.089-.223.223-.223-.223-.134.089.223.223-.223.268.134.089.223-.223.223.223.134-.089-.223-.268Z" transform="translate(305.871 35.141)" fill="#7b868c"/>
        <path id="Trazado_38" data-name="Trazado 38" d="M-266.886-5.911-267.02-6l-.223.223L-267.511-6l-.089.089.223.268-.223.223.089.089.268-.223.223.223.134-.089-.268-.223Z" transform="translate(289.43 28.111)" fill="#7b868c"/>
        <path id="Trazado_39" data-name="Trazado 39" d="M-296.586-5.911-296.72-6l-.223.223L-297.166-6l-.134.089.223.268-.223.223.134.089.223-.223.223.223.134-.089-.223-.223Z" transform="translate(305.871 28.111)" fill="#7b868c"/>
        <path id="Trazado_40" data-name="Trazado 40" d="M-293.686,7.289l-.089-.089-.223.223-.268-.223-.134.089.268.268-.223.223.089.134.268-.268.223.268.089-.134-.223-.223Z" transform="translate(304.265 20.804)" fill="#7b868c"/>
        <path id="Trazado_41" data-name="Trazado 41" d="M-269.83,7.289l-.089-.089-.223.223-.268-.223-.089.089.223.268-.223.223.089.134.268-.268.223.268.089-.134-.223-.223Z" transform="translate(291.036 20.804)" fill="#7b868c"/>
        <path id="Trazado_42" data-name="Trazado 42" d="M-281.786,13.034l-.089-.134-.268.268-.223-.268-.134.134.268.223-.268.268.134.089.223-.223.268.223.089-.089-.223-.268Z" transform="translate(297.678 17.649)" fill="#7b868c"/>
      </g>
    </g>
  </g>
</svg>
